<?xml version="1.0" standalone="no"?>
<!DOCTYPE svg PUBLIC "-//W3C//DTD SVG 20010904//EN"
 "http://www.w3.org/TR/2001/REC-SVG-20010904/DTD/svg10.dtd">
<svg version="1.0" xmlns="http://www.w3.org/2000/svg"
 width="1000.000000pt" height="1000.000000pt" viewBox="0 0 1000.000000 1000.000000"
 preserveAspectRatio="xMidYMid meet">
<metadata>
Created by potrace 1.14, written by Peter Selinger 2001-2017
</metadata>
<g transform="translate(0.000000,1000.000000) scale(0.100000,-0.100000)"
fill="#000000" stroke="none">
<path d="M4313 9242 c-374 -411 -694 -762 -711 -780 -30 -32 -33 -33 -89 -27
-32 3 -213 12 -403 21 -508 22 -1196 52 -1429 64 -113 5 -206 8 -209 6 -2 -3
3 -148 12 -323 23 -463 45 -886 51 -978 2 -44 11 -228 20 -410 8 -181 17 -339
20 -350 2 -11 1 -25 -3 -31 -4 -6 -218 -204 -477 -439 -259 -236 -608 -555
-778 -709 -169 -154 -307 -283 -307 -286 0 -3 136 -129 301 -280 166 -151 393
-358 505 -460 111 -102 326 -297 477 -435 152 -137 277 -254 280 -260 2 -5 0
-75 -4 -155 -11 -190 -35 -650 -59 -1130 -11 -212 -24 -479 -31 -593 -6 -115
-9 -210 -7 -213 3 -2 157 3 344 11 186 9 488 22 669 30 182 8 373 17 425 20
101 5 514 23 614 27 57 1 61 0 90 -34 137 -157 1381 -1518 1386 -1516 4 2 325
353 714 781 l707 778 57 -6 c54 -5 298 -17 1077 -50 322 -14 613 -28 861 -41
l110 -6 -3 59 c-2 32 -8 153 -13 268 -19 378 -40 788 -45 875 -3 47 -12 220
-20 385 -8 165 -18 347 -21 405 l-7 106 454 414 c250 228 603 551 786 718
l332 303 -232 212 c-128 117 -390 356 -583 532 -846 772 -754 683 -754 729 0
23 5 120 10 216 6 96 17 303 25 460 16 313 52 1014 64 1235 4 77 7 141 6 142
-1 2 -150 -4 -331 -12 -634 -28 -1010 -45 -1084 -49 -189 -11 -700 -29 -703
-25 -20 24 -1399 1539 -1406 1543 -5 3 -314 -331 -688 -742z m1553 -2909 c-3
-285 -9 -546 -12 -580 -7 -81 7 -82 61 -6 81 114 231 213 380 250 97 24 325
24 415 0 405 -107 630 -506 632 -1117 0 -303 -40 -520 -131 -704 -115 -232
-265 -366 -486 -432 -77 -22 -110 -26 -225 -27 -249 -2 -406 57 -566 215 -44
43 -78 69 -89 66 -11 -2 -34 -44 -67 -125 l-51 -123 -228 0 -229 0 -2 1550 -3
1550 304 0 303 0 -6 -517z m-1887 -329 c333 -55 536 -214 620 -487 37 -121 42
-253 39 -1027 l-3 -735 -211 -3 -211 -2 -58 150 c-32 82 -62 150 -66 150 -5 0
-43 -36 -86 -80 -181 -191 -341 -253 -648 -253 -132 0 -174 4 -238 21 -226 62
-374 209 -439 437 -30 107 -32 344 -4 445 55 198 198 337 427 415 173 59 351
83 699 93 l225 7 0 110 c0 169 -42 247 -163 303 -142 65 -431 26 -731 -98 -41
-16 -75 -29 -75 -28 -1 2 -45 92 -98 201 -54 108 -98 199 -98 202 0 8 131 65
230 99 276 96 606 126 889 80z"/>
<path d="M6147 5511 c-183 -60 -262 -219 -274 -552 -12 -314 35 -523 143 -639
144 -154 420 -155 556 0 119 134 177 400 150 683 -25 263 -106 423 -250 494
-50 24 -70 28 -162 30 -81 2 -118 -1 -163 -16z"/>
<path d="M3710 4770 c-216 -20 -348 -87 -407 -208 -24 -50 -28 -68 -28 -147 1
-104 20 -153 80 -203 64 -52 179 -72 305 -53 151 23 272 110 333 239 31 65 32
72 35 225 l4 157 -118 -1 c-66 -1 -157 -5 -204 -9z"/>
</g>
</svg>
